<?xml version="1.0" standalone="no"?>
<!DOCTYPE svg PUBLIC "-//W3C//DTD SVG 20010904//EN"
 "http://www.w3.org/TR/2001/REC-SVG-20010904/DTD/svg10.dtd">
<svg version="1.0" xmlns="http://www.w3.org/2000/svg"
 width="720.000000pt" height="720.000000pt" viewBox="0 0 720.000000 720.000000"
 preserveAspectRatio="xMidYMid meet">
<metadata>
Created by potrace 1.14, written by Peter Selinger 2001-2017
</metadata>
<g transform="translate(0.000000,720.000000) scale(0.100000,-0.100000)"
fill="#000000" stroke="none">
<path d="M3309 6972 c-203 -206 -369 -381 -369 -389 0 -2 -10 -14 -22 -27 -13
-12 -41 -44 -63 -71 -22 -27 -47 -56 -55 -65 -8 -9 -33 -38 -55 -65 -22 -28
-44 -55 -50 -61 -5 -6 -20 -24 -33 -40 -12 -16 -34 -44 -48 -62 -14 -18 -104
-135 -200 -260 -95 -125 -177 -231 -181 -237 -24 -29 -123 -185 -139 -217 -10
-21 -21 -38 -26 -38 -4 0 -8 -6 -8 -14 0 -8 -9 -30 -19 -48 -28 -47 -66 -156
-88 -248 -2 -8 -4 -49 -5 -91 -1 -78 13 -137 59 -239 50 -112 57 -126 77 -155
12 -16 19 -30 16 -30 -2 0 22 -44 53 -97 31 -53 57 -99 57 -102 0 -2 18 -32
40 -65 22 -33 40 -65 40 -71 0 -5 4 -10 9 -10 5 0 11 -8 15 -17 5 -18 26 -54
36 -63 3 -3 21 -30 40 -60 39 -62 144 -225 246 -380 38 -58 73 -112 77 -120 4
-8 19 -33 32 -55 24 -42 47 -85 182 -345 44 -85 91 -175 104 -200 13 -25 24
-47 24 -50 1 -3 38 -81 83 -174 45 -92 82 -170 82 -171 0 -2 14 -34 32 -72 17
-37 32 -70 33 -73 1 -3 7 -16 13 -30 6 -14 39 -96 75 -183 l64 -158 -26 -32
c-14 -18 -32 -39 -39 -47 -7 -8 -20 -24 -30 -36 -15 -18 -38 -46 -140 -162
-29 -33 -186 -203 -227 -246 -16 -17 -61 -70 -99 -116 -38 -47 -75 -89 -81
-95 -6 -5 -46 -55 -88 -110 -43 -55 -84 -107 -90 -115 -77 -96 -291 -406 -366
-533 l-23 -37 24 9 c12 5 52 22 88 39 189 86 591 222 700 237 8 1 40 7 70 13
201 41 557 49 724 16 12 -2 41 -7 66 -10 25 -3 54 -8 65 -11 11 -2 31 -6 45
-9 14 -3 33 -7 43 -10 10 -3 30 -7 45 -9 15 -2 83 -20 152 -40 69 -20 132 -38
141 -40 9 -2 70 -22 135 -45 66 -23 125 -42 132 -43 6 0 12 -4 12 -9 0 -4 9
-8 20 -8 11 0 28 -4 38 -9 9 -5 52 -23 95 -40 l77 -30 -17 32 c-10 18 -21 34
-24 37 -3 3 -9 12 -12 20 -4 8 -16 29 -27 45 -11 17 -23 38 -26 47 -4 10 -10
18 -15 18 -5 0 -9 5 -9 10 0 20 -232 351 -252 358 -4 2 -8 8 -8 13 0 8 -15 28
-65 83 -104 116 -175 194 -241 263 -44 45 -88 92 -98 105 -28 34 -138 159
-161 184 -11 11 -36 40 -55 64 -62 76 -85 104 -97 120 -6 8 -32 40 -56 70 -24
30 -43 62 -41 70 1 8 17 56 34 105 18 50 33 95 34 100 2 6 8 24 15 40 7 17 35
89 64 160 49 126 227 488 308 630 22 39 45 81 52 95 6 14 14 27 17 30 4 3 21
32 39 65 71 130 92 167 137 242 26 43 57 91 68 108 12 16 26 37 31 46 43 74
90 145 97 147 4 2 8 10 8 18 0 8 5 14 12 14 6 0 9 3 5 6 -3 4 5 21 18 39 14
17 25 37 25 43 0 7 3 12 8 12 4 0 12 9 17 20 6 11 37 64 70 117 33 54 65 107
71 118 303 526 365 667 340 775 -4 14 -9 41 -12 60 -17 104 -87 267 -183 424
-20 33 -44 72 -52 85 -8 14 -17 30 -22 35 -4 6 -53 79 -109 161 -56 83 -104
152 -107 155 -3 3 -22 28 -40 55 -19 28 -37 52 -41 55 -3 3 -18 23 -33 46 -15
22 -35 49 -45 60 -10 10 -28 35 -42 54 -13 19 -27 37 -31 40 -3 3 -30 34 -58
70 -134 168 -395 431 -586 591 -40 34 -64 55 -113 97 -15 13 -40 33 -56 45
-15 12 -41 34 -57 49 -54 51 -49 55 -270 -170z"/>
<path d="M6898 4675 c-2 -1 -37 -5 -78 -9 -66 -5 -292 -37 -360 -50 -14 -3
-36 -7 -50 -10 -14 -2 -32 -7 -40 -10 -8 -3 -26 -7 -40 -10 -38 -7 -222 -63
-282 -86 -59 -23 -86 -35 -173 -76 -33 -16 -63 -27 -67 -26 -5 1 -8 -1 -8 -6
0 -4 -15 -14 -32 -21 -28 -12 -183 -102 -318 -183 -38 -23 -280 -202 -320
-238 -209 -181 -326 -301 -445 -456 -38 -49 -72 -91 -75 -94 -3 -3 -34 -48
-68 -100 -34 -52 -68 -104 -77 -115 -8 -10 -15 -22 -15 -27 0 -4 -13 -26 -29
-50 -67 -100 -224 -412 -376 -750 -50 -111 -52 -118 -37 -137 10 -11 27 -33
39 -48 12 -15 34 -41 48 -58 14 -16 40 -47 58 -68 17 -21 37 -44 42 -50 6 -7
42 -50 80 -97 38 -47 72 -87 75 -90 3 -3 41 -48 84 -100 43 -52 88 -106 100
-120 12 -14 66 -79 121 -145 54 -66 101 -122 105 -125 3 -3 50 -59 104 -125
54 -66 118 -142 141 -170 24 -27 91 -107 149 -177 58 -70 107 -124 110 -120 4
6 11 62 21 163 2 23 9 82 20 169 3 19 7 55 10 80 3 25 8 59 11 75 3 17 7 46 9
65 2 19 6 45 9 57 2 11 8 43 12 70 3 26 8 57 10 68 11 57 14 72 19 95 3 14 8
39 11 55 3 17 10 50 15 75 12 51 17 75 24 110 5 24 34 146 70 290 29 118 183
557 240 685 7 17 22 53 33 80 11 28 44 100 73 160 29 61 53 112 54 115 4 15
102 199 154 290 18 30 35 63 38 73 3 9 9 17 14 17 5 0 9 5 9 11 0 28 278 453
320 489 3 3 17 21 30 40 13 19 27 37 30 40 3 3 19 23 35 45 16 22 35 47 42 55
103 127 176 216 182 220 4 3 14 15 22 26 13 19 147 170 191 216 16 16 15 17
-27 16 -24 0 -45 -2 -47 -3z"/>
<path d="M251 4628 c5 -10 14 -18 20 -18 6 0 8 -4 5 -8 -3 -5 3 -15 12 -23 22
-19 122 -135 141 -163 8 -12 18 -23 21 -26 5 -4 49 -59 133 -165 41 -52 207
-280 207 -284 0 -3 14 -21 30 -40 17 -18 30 -39 30 -47 0 -7 3 -14 8 -16 15
-7 152 -216 152 -234 0 -2 10 -21 23 -42 52 -83 211 -389 269 -517 41 -90 71
-159 73 -165 1 -3 9 -23 19 -45 52 -118 239 -655 252 -725 3 -14 16 -68 30
-121 13 -53 27 -109 29 -125 3 -16 18 -90 34 -164 16 -74 32 -148 34 -165 3
-16 13 -75 22 -130 10 -55 18 -111 20 -125 1 -14 5 -45 9 -70 14 -85 15 -95
21 -150 3 -30 7 -68 10 -85 4 -27 7 -60 21 -190 4 -34 10 -82 13 -93 1 -2 31
34 67 80 37 45 69 85 73 88 3 3 19 23 35 45 16 22 35 47 43 55 13 15 53 65
108 134 29 37 45 56 86 104 10 12 19 26 19 31 0 5 4 11 8 13 5 2 65 73 133
158 68 85 128 160 134 166 5 7 19 24 30 40 11 15 25 33 32 40 7 6 62 74 123
150 61 77 116 146 123 154 6 8 28 35 47 60 19 25 39 51 45 58 5 7 17 21 25 30
9 9 33 38 53 64 l38 47 -21 48 c-12 26 -25 57 -30 68 -19 47 -39 93 -60 140
-12 28 -29 66 -38 85 -96 218 -327 654 -373 706 -11 11 -19 23 -19 27 0 6
-108 162 -137 197 -6 8 -33 42 -60 75 -46 59 -298 315 -358 365 -80 66 -225
180 -270 211 -68 46 -216 139 -222 139 -3 0 -17 8 -31 19 -33 23 -220 120
-282 146 -125 52 -249 94 -360 121 -8 2 -33 8 -55 14 -22 6 -47 11 -55 12 -8
0 -45 6 -81 14 -36 7 -90 16 -120 19 -30 3 -65 8 -79 10 -25 4 -129 15 -187
19 -28 3 -31 1 -22 -16z"/>
<path d="M3418 635 c-2 -1 -34 -5 -73 -9 -347 -32 -617 -147 -641 -273 -10
-51 4 -84 54 -133 73 -70 194 -122 381 -161 92 -19 121 -24 251 -36 125 -11
485 -3 509 12 3 1 26 6 51 9 73 10 102 16 160 32 30 9 62 17 70 19 8 2 41 14
73 29 31 14 61 26 65 26 16 2 98 65 121 92 34 43 39 107 11 153 -54 87 -211
160 -440 204 -52 10 -102 19 -110 19 -8 1 -35 4 -60 7 -43 6 -417 14 -422 10z"/>
</g>
</svg>
